# xmcd
#
# Track frame offsets: 
#        150
#        19123
#        52293
#        69158
#        83210
#        103993
#        120370
#        137900
#        154238
#        173358
#        193890
#
# Disc length: 2768 seconds
#
# Revision: 0
# Processed by: cddbd v1.5.2PL0 Copyright (c) Steve Scherf et al.
# Submitted via: ExactAudioCopy v1.3
#
DISCID=940ace0b
DTITLE=The Hamsters - Electric Hamsterland
DYEAR=1990
DGENRE=Blues Rock
TTITLE0=Purple Haze
TTITLE1=Voodo Chile
TTITLE2=Fire
TTITLE3=Little Wing
TTITLE4=Spanish Castle Magic
TTITLE5=Foxy Lady
TTITLE6=Stone Free
TTITLE7=The Wind Cries Mary
TTITLE8=All Along The Watchtower
TTITLE9=Hey Joe
TTITLE10=Star Spangled Banner
EXTD=
EXTT0=
EXTT1=
EXTT2=
EXTT3=
EXTT4=
EXTT5=
EXTT6=
EXTT7=
EXTT8=
EXTT9=
EXTT10=
PLAYORDER=
